<svg width="30" height="30" viewBox="0 0 30 30" fill="none" xmlns="http://www.w3.org/2000/svg">
<path d="M20 2.5V5M8.75 27.5V25C8.75 24.337 9.01339 23.7011 9.48223 23.2322C9.95107 22.7634 10.587 22.5 11.25 22.5H18.75C19.413 22.5 20.0489 22.7634 20.5178 23.2322C20.9866 23.7011 21.25 24.337 21.25 25V27.5M10 2.5V5M18.75 13.75C18.75 15.8211 17.0711 17.5 15 17.5C12.9289 17.5 11.25 15.8211 11.25 13.75C11.25 11.6789 12.9289 10 15 10C17.0711 10 18.75 11.6789 18.75 13.75ZM6.25 5H23.75C25.1307 5 26.25 6.11929 26.25 7.5V25C26.25 26.3807 25.1307 27.5 23.75 27.5H6.25C4.86929 27.5 3.75 26.3807 3.75 25V7.5C3.75 6.11929 4.86929 5 6.25 5Z" stroke="#0F172A" stroke-width="2" stroke-linecap="round" stroke-linejoin="round"/>
</svg>
