<svg width="30" height="30" viewBox="0 0 30 30" fill="none" xmlns="http://www.w3.org/2000/svg">
<path d="M22.5 10.945V8.5C22.5 5.67125 22.5 4.2575 21.5313 3.37875C20.5613 2.5 19.0025 2.5 15.8812 2.5H10.3688C7.2475 2.5 5.68875 2.5 4.71875 3.37875C3.74875 4.2575 3.75 5.67125 3.75 8.5V16.5C3.75 19.3287 3.75 20.7425 4.71875 21.6213C5.68875 22.5 7.2475 22.5 10.3688 22.5H15.8812M7.5 7.5H18.75M7.5 12.5H8.75M12.5 12.5H13.75M17.5 12.5H18.75M7.5 17.5H8.75M12.5 17.5H13.75M25.8825 18.755C25.54 17.8862 24.6575 16.8675 22.65 16.8675C20.3175 16.8675 19.335 17.9362 19.1363 18.5075C18.825 19.2712 18.7963 20.92 21.6225 21.0138C24.9975 21.1263 26.41 21.585 26.235 23.435C26.0613 25.285 24.1163 25.5425 22.65 25.6425C21.1438 25.5987 19.2813 25.2837 18.75 23.6862M22.4925 15V16.795M22.5038 25.6363V27.5" stroke="black" stroke-width="2" stroke-linecap="round" stroke-linejoin="round"/>
</svg>
