<svg width="31" height="30" viewBox="0 0 31 30" fill="none" xmlns="http://www.w3.org/2000/svg">
<path d="M22.6712 4.375C22.3262 3.11 21.24 2.19625 19.8756 2.09813C18.2781 1.98313 15.9156 1.875 12.6875 1.875C9.47875 1.875 7.12625 1.98188 5.52937 2.09625C3.93125 2.21 2.70937 3.43125 2.59562 5.03C2.48125 6.62688 2.375 8.98 2.375 12.1875C2.375 15.4156 2.48375 17.7775 2.59813 19.375C2.69625 20.7394 3.61062 21.8262 4.875 22.1706" stroke="black" stroke-width="2" stroke-linecap="round" stroke-linejoin="round"/>
<path d="M8.22125 10.6544C8.335 9.05625 9.55625 7.83563 11.155 7.72125C12.7513 7.60625 15.1044 7.5 18.3125 7.5C21.5206 7.5 23.8731 7.60688 25.47 7.72125C27.0687 7.835 28.29 9.05625 28.4037 10.655C28.5181 12.2519 28.625 14.605 28.625 17.8125C28.625 21.0206 28.5181 23.3731 28.4037 24.9706C28.29 26.5687 27.0687 27.7894 25.47 27.9037C23.8731 28.0181 21.52 28.125 18.3125 28.125C15.1044 28.125 12.7519 28.0181 11.1544 27.9037C9.55625 27.79 8.33563 26.5687 8.22125 24.97C8.10625 23.3737 8 21.0206 8 17.8125C8 14.6044 8.10688 12.2519 8.22125 10.6544Z" stroke="black" stroke-width="2" stroke-linecap="round" stroke-linejoin="round"/>
<path d="M28.5283 22.7431C27.1189 21.4219 26.1033 20.5419 25.3983 19.9656C24.5621 19.2813 23.4596 19.1819 22.5589 19.7825C21.8652 20.245 20.9127 20.9513 19.6683 22.0194C17.8183 20.25 16.5433 19.1381 15.7071 18.4538C14.8708 17.7694 13.7683 17.6706 12.8677 18.2706C11.8552 18.9456 10.2908 20.1406 8.0752 22.2194M20.4996 13.75C20.4996 14.2473 20.6971 14.7242 21.0487 15.0758C21.4004 15.4275 21.8773 15.625 22.3746 15.625C22.8719 15.625 23.3488 15.4275 23.7004 15.0758C24.052 14.7242 24.2496 14.2473 24.2496 13.75C24.2496 13.2527 24.052 12.7758 23.7004 12.4242C23.3488 12.0725 22.8719 11.875 22.3746 11.875C21.8773 11.875 21.4004 12.0725 21.0487 12.4242C20.6971 12.7758 20.4996 13.2527 20.4996 13.75Z" stroke="black" stroke-width="2" stroke-linecap="round" stroke-linejoin="round"/>
</svg>
