<svg width="30" height="30" viewBox="0 0 30 30" fill="none" xmlns="http://www.w3.org/2000/svg">
<g clip-path="url(#clip0_647_5553)">
<path d="M28.1248 20.5784L25.2185 17.6721C24.0466 16.5002 22.1248 16.5002 20.9529 17.6721L20.156 18.469L17.5779 15.8909L20.0154 13.4534L24.7966 12.1877C25.8279 11.9065 26.6716 11.0627 26.9529 10.0315L28.3123 5.01586C28.4529 4.45336 28.1248 3.89086 27.5623 3.70336C26.9998 3.56273 26.4373 3.89086 26.2498 4.45336L24.8904 9.46898C24.7966 9.79711 24.5623 10.0315 24.2341 10.1252L19.2185 11.4846C19.031 11.5315 18.8904 11.6252 18.7498 11.7659L16.1248 14.3909L14.531 12.7971L17.156 10.1721C17.2966 10.0315 17.3904 9.89086 17.4373 9.70336L18.7498 4.68773C18.8435 4.35961 19.0779 4.12523 19.406 4.03148L24.4216 2.67211C24.9841 2.53148 25.3123 1.92211 25.1716 1.35961C25.031 0.797107 24.4685 0.468982 23.906 0.656482L18.8904 1.96898C17.8591 2.25023 17.0154 3.09398 16.7341 4.12523L15.4685 8.85961L13.031 11.2971L10.5935 8.85961C11.531 7.78148 11.6248 6.18773 10.781 5.01586L8.76539 2.34398C8.24977 1.64086 7.45289 1.21898 6.56227 1.17211C5.67164 1.12523 4.82789 1.40648 4.21852 2.06273L2.29664 3.98461C1.68727 4.59398 1.35914 5.43773 1.40602 6.32836C1.45289 7.21898 1.87477 8.01586 2.57789 8.53148L5.24977 10.5471C5.76539 10.969 6.42164 11.1565 7.07789 11.1565C7.82789 11.1565 8.53102 10.8752 9.09352 10.3596L11.531 12.7971L8.39039 15.9377L3.65602 17.2034C2.62477 17.4846 1.78102 18.3284 1.49977 19.3596L0.468518 23.2502C0.187268 24.2815 0.468518 25.4065 1.26539 26.2034L2.71852 27.6565C3.28102 28.219 4.07789 28.5471 4.87477 28.5471C5.15602 28.5471 5.39039 28.5002 5.67164 28.4534L9.56227 27.4221C10.5935 27.1409 11.4373 26.2971 11.7185 25.2659L12.9841 20.5315L16.1248 17.3909L18.7029 19.969L17.906 20.7659C16.7341 21.9377 16.7341 23.8596 17.906 25.0315L20.8123 27.9377C21.7966 28.9221 23.0623 29.4377 24.4685 29.4377C25.8748 29.4377 27.1404 28.9221 28.1248 27.9377C29.1091 26.9534 29.6248 25.6877 29.6248 24.2815C29.6248 22.8752 29.1091 21.5627 28.1248 20.5784ZM6.51539 8.81273L3.84352 6.79711C3.56227 6.56273 3.51539 6.28148 3.46852 6.14086C3.46852 6.00023 3.46852 5.67211 3.74977 5.43773L5.67164 3.51586C5.90602 3.28148 6.14039 3.23461 6.32789 3.23461H6.37477C6.51539 3.23461 6.79664 3.32836 7.03102 3.60961L9.04664 6.28148C9.32789 6.65648 9.28102 7.12523 8.95289 7.45336L7.68727 8.71898C7.40602 9.04711 6.89039 9.09398 6.51539 8.81273ZM11.2966 19.219C11.156 19.3596 11.0623 19.5002 11.0154 19.6877L9.65602 24.7034C9.56227 25.0315 9.32789 25.2659 8.99977 25.3596L5.10914 26.3909C4.78102 26.4846 4.45289 26.3909 4.21852 26.1565L2.76539 24.7034C2.53102 24.469 2.43727 24.1409 2.53102 23.8127L3.56227 19.9221C3.65602 19.594 3.89039 19.3596 4.21852 19.2659L9.23414 17.9065C9.42164 17.8596 9.56227 17.7659 9.70289 17.6252L13.0779 14.2502L14.6716 15.844L11.2966 19.219ZM26.6248 26.3909C26.0623 26.9534 25.2654 27.2815 24.4685 27.2815C23.6716 27.2815 22.8748 26.9534 22.3123 26.3909L19.406 23.4846C19.0779 23.1565 19.0779 22.5471 19.406 22.219L20.2029 21.4221L20.8591 22.0784C21.0466 22.2659 21.3279 22.4065 21.6091 22.4065C21.8904 22.4065 22.1716 22.3127 22.3591 22.0784C22.781 21.6565 22.781 21.0002 22.3591 20.5784L21.7029 19.9221L22.4998 19.1252C22.6873 18.9377 22.8748 18.844 23.156 18.844C23.3904 18.844 23.6248 18.9377 23.8123 19.1252L26.7185 22.0315C27.281 22.594 27.6091 23.3909 27.6091 24.1877C27.6091 24.9846 27.2341 25.8284 26.6248 26.3909Z" fill="#111928"/>
</g>
<defs>
<clipPath id="clip0_647_5553">
<rect width="30" height="30" fill="white"/>
</clipPath>
</defs>
</svg>
