<svg width="37" height="60" viewBox="0 0 37 60" fill="none" xmlns="http://www.w3.org/2000/svg">
<g clip-path="url(#clip0_653_5668)">
<rect x="2" y="2.5" width="33" height="55" rx="6" stroke="black" stroke-width="4"/>
<path d="M15 51.5H22" stroke="black" stroke-width="4" stroke-linecap="round"/>
<path d="M17.5418 29.0418L12.7501 24.2501M11.7918 25.6876L14.1876 23.2918L11.3126 21.8543L10.3543 22.8126L11.7918 25.6876ZM26.1428 27.1012C26.6029 26.6415 26.9195 26.0579 27.0539 25.4216C27.1883 24.7852 27.1348 24.1235 26.8999 23.517L25.5372 24.8797H23.6205V22.9631L24.9833 21.6003C24.3767 21.3649 23.7148 21.311 23.0781 21.4451C22.4415 21.5792 21.8576 21.8956 21.3976 22.3557C20.9376 22.8158 20.6213 23.3998 20.4873 24.0365C20.3533 24.6732 20.4074 25.3351 20.643 25.9416L14.4426 32.143C13.8361 31.9074 13.1742 31.8533 12.5375 31.9873C11.9008 32.1213 11.3168 32.4375 10.8567 32.8976C10.3966 33.3576 10.0802 33.9415 9.94607 34.5781C9.81194 35.2148 9.86588 35.8767 10.1013 36.4832L11.4631 35.1205H13.3798V37.0372L12.017 38.3999C12.6234 38.6353 13.2852 38.6893 13.9217 38.5554C14.5582 38.4214 15.1421 38.1053 15.6022 37.6454C16.0622 37.1855 16.3786 36.6018 16.5129 35.9653C16.6471 35.3289 16.5934 34.6671 16.3583 34.0606L22.5606 27.8582C23.1668 28.0927 23.8282 28.146 24.4641 28.0116C25.1001 27.8772 25.6833 27.5609 26.1428 27.1012Z" stroke="black" stroke-width="1.5" stroke-linecap="round" stroke-linejoin="round"/>
<path d="M18.3057 32.396L23.6762 37.7665C23.7963 37.8869 23.9391 37.9825 24.0962 38.0476C24.2533 38.1128 24.4217 38.1463 24.5919 38.1463C24.762 38.1463 24.9304 38.1128 25.0875 38.0476C25.2446 37.9825 25.3874 37.8869 25.5075 37.7665L26.2665 37.0075C26.3869 36.8874 26.4825 36.7446 26.5476 36.5875C26.6128 36.4304 26.6463 36.262 26.6463 36.0919C26.6463 35.9217 26.6128 35.7533 26.5476 35.5962C26.4825 35.4391 26.3869 35.2963 26.2665 35.1762L20.896 29.8057" stroke="black" stroke-width="1.5" stroke-linecap="round" stroke-linejoin="round"/>
</g>
<defs>
<clipPath id="clip0_653_5668">
<rect width="37" height="59" fill="white" transform="translate(0 0.5)"/>
</clipPath>
</defs>
</svg>
